# xmcd
#
# Track frame offsets: 
#        150
#        17129
#        36424
#        54381
#        71348
#        85707
#        100732
#        121173
#        128896
#        144370
#        161289
#        179630
#
# Disc length: 2666 seconds
#
# Revision: 0
# Processed by: cddbd v1.5.2PL0 Copyright (c) Steve Scherf et al.
# Submitted via: ExactAudioCopyFreeDBPlugin 1.0
#
DISCID=980a680c
DTITLE=Keith Burden - I'm Headed For The Hills
DYEAR=2003
DGENRE=Country
TTITLE0=The Old West Wind
TTITLE1=The Man Who Saved The Buffalo
TTITLE2=I'm Headed For The Hills
TTITLE3=I'd Trade A Lifetime
TTITLE4=Cabin Fever
TTITLE5=Granite Faces
TTITLE6=The Secret Of The Hills
TTITLE7=Rain On The Hills
TTITLE8=Dakota Dixieland Blues
TTITLE9=Lone Pine
TTITLE10=The Council Oak
TTITLE11=Life Is Good
EXTD=
EXTT0=
EXTT1=
EXTT2=
EXTT3=
EXTT4=
EXTT5=
EXTT6=
EXTT7=
EXTT8=
EXTT9=
EXTT10=
EXTT11=
PLAYORDER=
